<?xml version="1.0" encoding="utf-8"?>
<!-- Generator: Adobe Illustrator 26.1.0, SVG Export Plug-In . SVG Version: 6.00 Build 0)  -->
<svg version="1.1" id="Layer_1" xmlns="http://www.w3.org/2000/svg" xmlns:xlink="http://www.w3.org/1999/xlink" x="0px" y="0px"
	 viewBox="0 0 48 48" style="enable-background:new 0 0 48 48;" xml:space="preserve">
<style type="text/css">
	.st0{fill:#FFFFFF;}
</style>
<path class="st0" d="M41.8,9.9c1.3,0,2.4,1.1,2.4,2.4v18.9c0,1.3-1.1,2.4-2.4,2.4H19.1c-1.3,0-2.5,0.5-3.3,1.4L11,39.7V12.3
	c0-1.3,1.1-2.4,2.4-2.4H41.8z M13.4,7.5c-2.6,0-4.7,2.1-4.7,4.7v30.3c0,0.7,0.5,1.2,1.2,1.2c0.3,0,0.6-0.1,0.8-0.3l6.8-6.8
	c0.4-0.4,1-0.7,1.7-0.7h22.7c2.6,0,4.7-2.1,4.7-4.7V12.3c0-2.6-2.1-4.7-4.7-4.7H13.4z"/>
</svg>
