<?xml version="1.0" encoding="utf-8"?>
<!-- Generator: Adobe Illustrator 26.1.0, SVG Export Plug-In . SVG Version: 6.00 Build 0)  -->
<svg version="1.1" id="Layer_1" xmlns="http://www.w3.org/2000/svg" xmlns:xlink="http://www.w3.org/1999/xlink" x="0px" y="0px"
	 viewBox="0 0 48 48" style="enable-background:new 0 0 48 48;" xml:space="preserve">
<style type="text/css">
	.st0{fill:#2B2B2B;}
</style>
<path class="st0" d="M12.7,31.7c0.4,0.4,0.7,1.1,0.6,1.7c-0.1,1.4-0.4,2.9-0.8,4.2c3-0.7,4.8-1.5,5.6-1.9c0.5-0.2,1-0.3,1.5-0.2
	c1.4,0.4,2.9,0.6,4.4,0.6c8.5,0,14.9-6,14.9-12.7S32.5,10.7,24,10.7s-14.9,6-14.9,12.7C9.1,26.6,10.4,29.5,12.7,31.7 M11.6,40
	c-0.5,0.1-1,0.2-1.5,0.3c-0.4,0.1-0.7-0.4-0.6-0.8c0.2-0.4,0.4-0.9,0.5-1.4l0,0c0.5-1.5,1-3.3,1.1-4.9c-2.6-2.6-4.2-6-4.2-9.8
	c0-8.2,7.6-14.9,17-14.9s17,6.7,17,14.9s-7.6,14.9-17,14.9c-1.7,0-3.4-0.2-5-0.6C17.9,38.3,15.5,39.3,11.6,40"/>
</svg>
