<?xml version="1.0" encoding="utf-8"?>
<!-- Generator: Adobe Illustrator 26.1.0, SVG Export Plug-In . SVG Version: 6.00 Build 0)  -->
<svg version="1.1" id="Layer_1" xmlns="http://www.w3.org/2000/svg" xmlns:xlink="http://www.w3.org/1999/xlink" x="0px" y="0px"
	 viewBox="0 0 48 48" style="enable-background:new 0 0 48 48;" xml:space="preserve">
<style type="text/css">
	.st0{fill-rule:evenodd;clip-rule:evenodd;}
</style>
<path class="st0" d="M35.5,8.7c2.1,0,3.8,1.7,3.8,3.8v23c0,2.1-1.7,3.8-3.8,3.8h-23c-2.1,0-3.8-1.7-3.8-3.8V8.7H35.5z M17.5,23
	c-1.2,0-2.1,0.3-2.8,1c-0.7,0.6-1,1.6-1,2.8v6c0,1.3,0.3,2.2,1,2.8c0.7,0.6,1.6,1,2.7,1c0.7,0,1.4-0.1,1.9-0.4
	c0.6-0.3,1-0.7,1.3-1.3c0.3-0.6,0.5-1.3,0.5-2.1v-0.4h-2.3v0.3c0,0.6-0.1,1-0.4,1.3c-0.2,0.3-0.6,0.4-1,0.5c-0.5,0-0.8-0.2-1.1-0.5
	c-0.2-0.3-0.4-0.8-0.4-1.4v-5.3c0-0.7,0.1-1.2,0.3-1.6c0.2-0.3,0.6-0.5,1.1-0.5c0.4,0,0.7,0.1,1,0.4c0.2,0.3,0.4,0.7,0.4,1.3v0.4
	h2.4v-0.4c0-0.9-0.2-1.6-0.5-2.2c-0.3-0.6-0.7-1-1.3-1.3C18.9,23.2,18.2,23,17.5,23 M25.5,23c-0.7,0-1.4,0.2-1.9,0.5
	c-0.5,0.3-0.9,0.8-1.2,1.3c-0.3,0.6-0.4,1.2-0.4,1.9c0,1,0.2,1.7,0.6,2.3c0.4,0.5,1,1,1.9,1.4l0.9,0.4c0.6,0.2,1,0.5,1.2,0.8
	c0.2,0.3,0.4,0.7,0.4,1.2c0,0.6-0.1,1.1-0.3,1.3c-0.2,0.3-0.5,0.4-1,0.4c-0.5,0-0.8-0.2-1-0.5c-0.2-0.3-0.4-0.8-0.4-1.4h-2.2
	c0,1.3,0.3,2.2,1,2.9c0.6,0.7,1.5,1,2.7,1s2.1-0.3,2.7-1s1-1.6,1-2.8c0-1-0.2-1.9-0.6-2.5c-0.4-0.6-1.1-1.1-2-1.5l-0.9-0.4
	c-0.5-0.2-0.9-0.5-1.1-0.7c-0.2-0.3-0.3-0.6-0.3-1.1c0-0.5,0.1-0.9,0.3-1.1c0.2-0.2,0.5-0.4,1-0.4c0.5,0,0.8,0.1,1,0.4
	c0.2,0.3,0.3,0.7,0.3,1.3H29c0-1.2-0.4-2.2-1-2.8C27.5,23.3,26.6,23,25.5,23 M33.3,23c-0.7,0-1.4,0.2-1.9,0.5
	c-0.5,0.3-0.9,0.8-1.2,1.3c-0.3,0.6-0.4,1.2-0.4,1.9c0,1,0.2,1.7,0.6,2.3c0.4,0.5,1,1,1.9,1.4l0.9,0.4c0.6,0.2,1,0.5,1.2,0.8
	c0.2,0.3,0.4,0.7,0.4,1.2c0,0.6-0.1,1.1-0.3,1.3c-0.2,0.3-0.5,0.4-1,0.4c-0.5,0-0.8-0.2-1-0.5c-0.2-0.3-0.4-0.8-0.4-1.4h-2.2
	c0,1.3,0.3,2.2,1,2.9c0.6,0.7,1.5,1,2.7,1c1.2,0,2.1-0.3,2.7-1c0.6-0.7,1-1.6,1-2.8c0-1-0.2-1.9-0.6-2.5c-0.4-0.6-1.1-1.1-2-1.5
	l-0.9-0.4c-0.5-0.2-0.9-0.5-1.1-0.7C32.1,27.4,32,27,32,26.6c0-0.5,0.1-0.9,0.3-1.1c0.2-0.2,0.6-0.4,1-0.4c0.5,0,0.8,0.1,1,0.4
	c0.2,0.3,0.3,0.7,0.3,1.3h2.2c0-1.2-0.4-2.2-1-2.8C35.2,23.3,34.4,23,33.3,23" fill="#333"/>
</svg>
