<?xml version="1.0" encoding="utf-8"?>
<!-- Generator: Adobe Illustrator 26.1.0, SVG Export Plug-In . SVG Version: 6.00 Build 0)  -->
<svg version="1.1" id="Layer_1" xmlns="http://www.w3.org/2000/svg" xmlns:xlink="http://www.w3.org/1999/xlink" x="0px" y="0px"
	 viewBox="0 0 48 48" style="enable-background:new 0 0 48 48;" xml:space="preserve">
<style type="text/css">
	.st0{fill:#FFFFFF;}
</style>
<path class="st0" d="M25.5,24.6v-2.2h-4.9c0,0,0.6-9,0.8-10.2c0.3-1.2,0.4-2.4,1.9-2.3c1.5,0.2,1.4,2.3,1.4,2.3h3.5
	c0,0-0.6-2.9-2-4.4c-1.5-1.5-5.8-1.2-7,0c-1.2,1.3-1.7,3.7-1.9,4.7c-0.4,3.3-0.6,6.6-0.9,9.9h-6.3v2.2H16c0,0-0.6,9-0.8,10.2
	c-0.3,1.2-0.4,2.4-1.9,2.3c-1.5-0.2-1.4-2.3-1.4-2.3H8.4c0,0,0.6,2.9,2,4.4c1.5,1.5,5.8,1.2,7,0c1.2-1.3,1.7-3.7,1.9-4.7
	c0.4-3.3,0.6-6.6,0.9-9.9H25.5z"/>
<path class="st0" d="M39.7,29.6c-1.2-0.7-2.3-1.5-3.4-2.3c-1.6,1.5-3.2,3-4.8,4.6l-4.7-4.2l-1.5,1.6l4.4,3.9c0,0-2.6,2.6-4.8,4.7
	c0.2,0.2,0.5,0.3,0.7,0.5c0.9,0.6,1.8,1.2,2.8,1.7c1.5-1.4,2.9-2.8,4.4-4.1l4,3.5l1.5-1.6l-3.7-3.3C34.6,34.6,37.5,31.7,39.7,29.6z"
	/>
</svg>
