<?xml version="1.0" encoding="utf-8"?>
<!-- Generator: Adobe Illustrator 26.1.0, SVG Export Plug-In . SVG Version: 6.00 Build 0)  -->
<svg version="1.1" id="Layer_1" xmlns="http://www.w3.org/2000/svg" xmlns:xlink="http://www.w3.org/1999/xlink" x="0px" y="0px"
	 viewBox="0 0 48 48" style="enable-background:new 0 0 48 48;" xml:space="preserve">
<style type="text/css">
	.st0{fill:#FFFFFF;}
</style>
<circle class="st0" cx="24" cy="24" r="21.1"/>
<path d="M12.2,39.1c-0.5,0-1-0.5-1-1s0.3-1.3,1-1.3h2v-2c0-3.8,2-7.2,5.6-8.7c0.5-0.3,1-0.8,1-1.3v-1.5c0-0.5-0.3-1-1-1.3
	c-3.6-1.5-5.6-4.9-5.6-8.7v-2h-2c-0.8,0-1-0.5-1-1.3s0.5-1,1-1h23.8c0.5,0,1,0.5,1,1c0,0.5-0.5,1.3-1.3,1.3h-2v2
	c0,3.8-2,7.2-5.6,8.7c-0.5,0.3-0.8,0.8-0.8,1.3v1.5c0,0.5,0.3,1,1,1.3c3.3,1.5,5.6,5.1,5.6,8.7v2h2c0.5,0,1,0.5,1,1s-0.5,1-1,1H12.2
	V39.1z M16.5,11.2v2c0,1.3,0.3,2.3,0.8,3.3h13.6c0.5-1,0.8-2,0.8-3.3v-2H16.5z M22.9,24.8c0,1.5-1,2.6-2.3,3.3
	c-2.6,1.3-4.3,3.8-4.3,6.9c0,0,1.8-2.8,6.4-3.1v-7.2H22.9z M25,24.8v6.9c4.6,0.5,6.4,3.1,6.4,3.1c0-2.8-1.8-5.6-4.3-6.9
	C26,27.3,25,26.3,25,24.8L25,24.8z"/>
</svg>
