<?xml version="1.0" encoding="utf-8"?>
<!-- Generator: Adobe Illustrator 26.1.0, SVG Export Plug-In . SVG Version: 6.00 Build 0)  -->
<svg version="1.1" id="Layer_1" xmlns="http://www.w3.org/2000/svg" xmlns:xlink="http://www.w3.org/1999/xlink" x="0px" y="0px"
	 viewBox="0 0 48 48" style="enable-background:new 0 0 48 48;" xml:space="preserve">
<path d="M24,37.1c-7.2,0-13.1-5.9-13.1-13.1S16.8,10.9,24,10.9S37.1,16.8,37.1,24S31.2,37.1,24,37.1 M24,39c8.3,0,15-6.7,15-15
	S32.3,9,24,9S9,15.7,9,24S15.7,39,24,39"/>
<path d="M25.7,21.4l-4.3,0.5l-0.2,0.7l0.8,0.2c0.5,0.1,0.7,0.3,0.5,0.9l-1.4,6.5c-0.4,1.7,0.2,2.5,1.5,2.5c1,0,2.2-0.5,2.7-1.1
	l0.2-0.8c-0.4,0.3-0.9,0.5-1.3,0.5c-0.5,0-0.7-0.4-0.6-1L25.7,21.4z M25.9,17.5c0,1-0.8,1.9-1.9,1.9c-1,0-1.9-0.8-1.9-1.9
	s0.8-1.9,1.9-1.9C25,15.6,25.9,16.4,25.9,17.5"/>
</svg>
