<?xml version="1.0" encoding="utf-8"?>
<!-- Generator: Adobe Illustrator 26.1.0, SVG Export Plug-In . SVG Version: 6.00 Build 0)  -->
<svg version="1.1" id="Layer_1" xmlns="http://www.w3.org/2000/svg" xmlns:xlink="http://www.w3.org/1999/xlink" x="0px" y="0px"
	 viewBox="0 0 48 48" style="enable-background:new 0 0 48 48;" xml:space="preserve">
<g>
	<path d="M17.8,29.7c0-0.6,0.5-1.1,1.1-1.1h4.6c0.6,0,1.1,0.5,1.1,1.1c0,0.6-0.5,1.1-1.1,1.1h-4.6C18.3,30.9,17.8,30.4,17.8,29.7
		 M17.8,25.1c0-0.6,0.5-1.1,1.1-1.1h11.5c0.6,0,1.1,0.5,1.1,1.1c0,0.6-0.5,1.1-1.1,1.1H18.9C18.3,26.3,17.8,25.8,17.8,25.1
		 M17.8,20.6c0-0.6,0.5-1.1,1.1-1.1h11.5c0.6,0,1.1,0.5,1.1,1.1s-0.5,1.1-1.1,1.1H18.9C18.3,21.7,17.8,21.2,17.8,20.6 M17.8,16
		c0-0.6,0.5-1.1,1.1-1.1h11.5c0.6,0,1.1,0.5,1.1,1.1s-0.5,1.1-1.1,1.1H18.9C18.3,17.1,17.8,16.6,17.8,16"/>
	<path d="M13.2,5.6h23c2.5,0,4.6,2.1,4.6,4.6v27.5c0,2.5-2.1,4.6-4.6,4.6h-23c-2.5,0-4.6-2.1-4.6-4.6v-2.3h2.3v2.3
		c0,1.3,1,2.3,2.3,2.3h23c1.3,0,2.3-1,2.3-2.3V10.2c0-1.3-1-2.3-2.3-2.3h-23c-1.3,0-2.3,1-2.3,2.3v2.3H8.6v-2.3
		C8.6,7.7,10.6,5.6,13.2,5.6"/>
	<path d="M8.6,17.1V16c0-0.6,0.5-1.1,1.1-1.1s1.1,0.5,1.1,1.1v1.1H12c0.6,0,1.1,0.5,1.1,1.1s-0.5,1.1-1.1,1.1H7.4
		c-0.6,0-1.1-0.5-1.1-1.1s0.5-1.1,1.1-1.1H8.6z M8.6,24v-1.1c0-0.6,0.5-1.1,1.1-1.1s1.1,0.5,1.1,1.1V24H12c0.6,0,1.1,0.5,1.1,1.1
		c0,0.6-0.5,1.1-1.1,1.1H7.4c-0.6,0-1.1-0.5-1.1-1.1c0-0.6,0.5-1.1,1.1-1.1H8.6z M8.6,30.9v-1.1c0-0.6,0.5-1.1,1.1-1.1
		s1.1,0.5,1.1,1.1v1.1H12c0.6,0,1.1,0.5,1.1,1.1c0,0.6-0.5,1.1-1.1,1.1H7.4c-0.6,0-1.1-0.5-1.1-1.1c0-0.6,0.5-1.1,1.1-1.1H8.6z"/>
</g>
</svg>
