<?xml version="1.0" encoding="utf-8"?>
<!-- Generator: Adobe Illustrator 26.1.0, SVG Export Plug-In . SVG Version: 6.00 Build 0)  -->
<svg version="1.1" id="Layer_1" xmlns="http://www.w3.org/2000/svg" xmlns:xlink="http://www.w3.org/1999/xlink" x="0px" y="0px"
	 viewBox="0 0 48 48" style="enable-background:new 0 0 48 48;" xml:space="preserve">
<path d="M35.3,15.8c-0.1-1.4-0.1-2.7-0.2-3.9c1.7,1.7,3.4,3.5,5.1,5.2c-1.6,1.6-3.3,3.4-5.1,5.2c0.1-1.2,0.1-2.3,0.2-3.5
	c-0.3,0-0.6,0-0.9,0c-8.1,0-16.2,0-24.3,0c-1.5,0-2.4,0.9-2.4,2.4c0,1.8,0,3.6,0,5.4c0,1.6,0.8,2.5,2.5,2.6c0.1,0,0.2,0,0.3,0
	c0,0.5,0,0.9,0,1.4c0,0.5,0,0.9,0,1.4c-1.8,0.2-3.2-0.4-4.4-1.7c-0.9-1-1.3-2.1-1.3-3.4c0-2,0-4,0-6c0.1-2.8,2.3-5,5.1-5
	c8.1,0,16.3,0,24.4,0C34.6,15.8,34.9,15.8,35.3,15.8z"/>
<path d="M17.1,31.6c0.1,1.4,0.1,2.7,0.2,3.9c-1.7-1.7-3.5-3.5-5.1-5.2c1.6-1.7,3.4-3.4,5.1-5.2c-0.1,1.2-0.1,2.3-0.2,3.5
	c0.2,0,0.4,0.1,0.5,0.1c8.2,0,16.5,0,24.7,0c1.4,0,2.4-1,2.4-2.4c0-1.8,0-3.5,0-5.3c0-1.8-0.8-2.6-2.5-2.7c-0.1,0-0.2,0-0.3-0.1
	c0-0.9,0-1.8,0-2.7c2.5-0.5,5.4,1.6,5.6,4.3c0.2,2.4,0.2,4.9,0,7.3c-0.2,2.5-2.4,4.4-4.9,4.4c-8.2,0-16.4,0-24.6,0
	C17.8,31.6,17.5,31.6,17.1,31.6z"/>
</svg>
