<?xml version="1.0" encoding="utf-8"?>
<!-- Generator: Adobe Illustrator 26.1.0, SVG Export Plug-In . SVG Version: 6.00 Build 0)  -->
<svg version="1.1" id="Layer_1" xmlns:v="https://vecta.io/nano"
	 xmlns="http://www.w3.org/2000/svg" xmlns:xlink="http://www.w3.org/1999/xlink" x="0px" y="0px" viewBox="0 0 64 64"
	 style="enable-background:new 0 0 64 64;" xml:space="preserve">
<style type="text/css">
	.st0{fill:#FFFFFF;}
	.st1{fill:#660066;}
</style>
<path class="st0" d="M52,58.6H12c-3.6,0-6.6-2.9-6.6-6.6V12c0-3.6,2.9-6.6,6.6-6.6h40c3.6,0,6.6,2.9,6.6,6.6v40
	C58.6,55.6,55.6,58.6,52,58.6z"/>
<path class="st1" d="M9.5,35H9.4v17.3c0,1.2,1,2.3,2.3,2.3h17.8C29.3,43.8,20.4,35,9.5,35z M9.5,20.7H9.4v7.4
	C24.1,28.2,36,40,36.2,54.6h7.6C43.7,35.9,28.4,20.7,9.5,20.7z M54.6,52.4V36.7C49.5,24,39,14,26.1,9.4H11.6c-1.2,0-2.3,1-2.3,2.3
	v2.2c22.6,0.1,41,18.3,41.2,40.8h1.8C53.6,54.6,54.6,53.6,54.6,52.4L54.6,52.4z M48.7,15.7c2.1,2.1,4.2,4.8,6,7.1V11.6
	c0-1.2-1-2.2-2.2-2.3c0,0,0,0,0,0H40.9C43.6,11.2,46.3,13.3,48.7,15.7z"/>
</svg>
