<?xml version="1.0" encoding="utf-8"?>
<!-- Generator: Adobe Illustrator 26.1.0, SVG Export Plug-In . SVG Version: 6.00 Build 0)  -->
<svg version="1.1" id="Layer_1" xmlns="http://www.w3.org/2000/svg" xmlns:xlink="http://www.w3.org/1999/xlink" x="0px" y="0px"
	 viewBox="0 0 16 16" style="enable-background:new 0 0 16 16;" xml:space="preserve">
<path d="M1.6,3c0-0.3,0.2-0.5,0.5-0.5h3.5c0.2,0,0.3,0.1,0.4,0.2l4.8,9.8H14c0.3,0,0.5,0.2,0.5,0.5c0,0.3-0.2,0.5-0.5,0.5h-3.5
	c-0.2,0-0.3-0.1-0.4-0.2L5.2,3.4H2C1.8,3.4,1.6,3.2,1.6,3 M10.8,3c0-0.3,0.2-0.5,0.5-0.5H14c0.3,0,0.5,0.2,0.5,0.5S14.2,3.4,14,3.4
	h-2.8C11,3.4,10.8,3.2,10.8,3" fill="#fff"/>
</svg>
