<svg xmlns="http://www.w3.org/2000/svg" viewBox="0 0 1142.34 1077.74">
  <defs>
    <style>
      .cls-1 {
        fill: #1f1f1f;
      }

      .cls-2 {
        fill: #603dd7;
      }
    </style>
  </defs>
  <g id="Layer_2" data-name="Layer 2">
    <g id="Layer_1-2" data-name="Layer 1">
      <path class="cls-1" d="M1138.91,259.88c-6.06-67.23-24.09-129.11-53.62-183.94l-.14-.28C1064.26,36.41,1025.39-.26,1011.34,0,997.9.25,968.4,37.92,947.88,75.74l-1,1.83c-18.68,37-41.71,68.68-67.93,94q.45-3.72.82-7.47a77.22,77.22,0,0,0-2.53-30.88c-6.22-21.15-24.7-70.15-45.06-79-19.56-8.49-40.17,12.87-58.54,28.09-7.91,6.56-11.32,9.37-24.3,22.72l-.08.08c-44.45,48-106.13,78.14-169.28,82.67-26,1.65-52.49,1.36-80.58,1.06-31.2-.34-63.47-.69-96.71,1.72-67.22,5-130.74,25.78-188.77,61.88-53.7,33.41-101.09,79.69-137,133.85A463.93,463.93,0,0,0,5.21,570.05C-5.45,638.41.32,708.48,21.91,772.72q5.39,18.51,12.19,36.09l13,38.44,3.35-1.57a393.92,393.92,0,0,0,89.9,117.45c52,46.49,115.56,79.5,189,98.09a554.15,554.15,0,0,0,135.91,16.52q4.88,0,9.75-.08a614.62,614.62,0,0,0,146.27-20.27c100.7-26.55,188.9-76.5,255.06-144.45l2.8-2.87,1.56-1.46c3.74-3.48,8.41-7.81,12.76-12.41,6.35-6.72,25.69-27.16,23.76-59.23a70.88,70.88,0,0,0-11.35-34.47,681,681,0,0,0,55.94-51.59c62.59-64.59,111.84-141.59,142.42-222.69C1137.18,440.81,1148.85,350.53,1138.91,259.88Z"/>
      <g>
        <path class="cls-2" d="M525.8,547.49c0-7-2-8.9-8.92-8.9q-32.73,0-65.47,0c-8.5,0-17.06-.54-25.47.32-53.21,5.41-89.52,53.32-80.75,106.15,7.5,45.22,48.16,77.54,94.7,75.29,45.56-2.22,83.19-39.35,85.47-84.93.71-14.12.11-28.3.11-42.46h.35C525.82,577.81,525.86,562.65,525.8,547.49Z"/>
        <path class="cls-2" d="M1069.31,266.83c-4.93-55.54-19.06-108.41-45.6-157.7-1.61-3-3-6.19-7.07-6.11s-5.56,3.11-7.19,6.11c-43.42,86-113,159.2-206.52,188.48q-18.16,6.31-36.72,11.36c-5.79,2.38-9.88-3.19-5.74-7.75a331,331,0,0,0,49.79-144.59c.32-2.57.31-5.09-2.6-6.36s-5,.37-6.94,2.43c-55.76,60.23-133.89,99.15-216,105-58.89,3.77-118-1.52-176.83,2.75C174.05,277.67,14,529.81,88.39,750.62l0,0c90.22,318.11,533.75,323.05,737.79,113.51,2.67-3.73,24.25-21.12,20.78-23.63C746.14,901.8,628.12,942.59,507.58,945,215.37,980.46,13.74,642.24,223.73,421c195.68-213.86,559.34-45.25,532.46,240.67-12.93,116-136.34,150.8-208.36,67.93C470.6,825.81,305.71,779,286,658.94c-19.09-92.51,56.78-183.47,151.19-181.19,55.87.83,148.19-15.62,148.65,65.61,2.52,44.7-6.1,91.22,5.5,134.8,14,37.76,62.61,42.23,84,20.76C711.05,658,697.07,595,680.34,548.53,603,318.84,245,349.22,206.71,585.79,170,740.41,306,878.84,456.79,882.06,791.24,908.58,1106.88,605.31,1069.31,266.83Z"/>
      </g>
    </g>
  </g>
</svg>
