<svg width="273" height="51" viewBox="0 0 273 51" fill="none" xmlns="http://www.w3.org/2000/svg">
<ellipse cx="25.0114" cy="25.1749" rx="25.0114" ry="25.1749" fill="url(#paint0_linear_207_307)"/>
<circle cx="76.1749" cy="25.1749" r="25.1749" fill="url(#paint1_linear_207_307)"/>
<circle cx="50.1749" cy="25.1749" r="24.6844" stroke="#525E64" stroke-width="0.980838"/>
<path d="M132.205 25.1749C132.205 38.8138 121.294 49.8593 107.848 49.8593C94.4017 49.8593 83.4904 38.8138 83.4904 25.1749C83.4904 11.536 94.4017 0.490419 107.848 0.490419C121.294 0.490419 132.205 11.536 132.205 25.1749Z" stroke="#525E64" stroke-width="0.980838"/>
<path d="M166.532 25.1749C166.532 38.8107 155.551 49.8593 142.011 49.8593C128.472 49.8593 117.49 38.8107 117.49 25.1749C117.49 11.539 128.472 0.490419 142.011 0.490419C155.551 0.490419 166.532 11.539 166.532 25.1749Z" stroke="#525E64" stroke-width="0.980838"/>
<path d="M153.975 14.8872C154.957 14.8872 155.631 15.2242 155.997 15.8981L166.452 31.9565L176.907 15.8981C177.293 15.2242 177.966 14.8872 178.929 14.8872H181.009C182.761 14.8872 183.637 15.7151 183.637 17.3711V36H179.334V20.1726L169.543 34.9891C169.138 35.663 168.532 36 167.723 36H165.21C164.421 36 163.805 35.663 163.362 34.9891L153.6 20.2015V36H149.296V17.3711C149.296 15.7151 150.163 14.8872 151.896 14.8872H153.975ZM208.589 14.8872C212.016 14.8872 213.73 16.4083 213.73 19.4506V36H208.906V28.8661H192.732V36H187.909V19.4506C187.909 16.4083 189.613 14.8872 193.021 14.8872H208.589ZM192.732 25.8046H208.906V20.5481C208.906 19.181 208.165 18.4975 206.682 18.4975H194.927C193.464 18.4975 192.732 19.181 192.732 20.5481V25.8046ZM238.886 20.808C238.886 19.2676 238.068 18.4975 236.431 18.4975H222.857V25.4003H236.431C238.068 25.4003 238.886 24.6301 238.886 23.0897V20.808ZM218.034 14.8872H237.962C241.755 14.8872 243.652 16.6009 243.652 20.0282V23.754C243.652 27.1813 241.755 28.895 237.962 28.895H222.857V36H218.034V14.8872ZM251.989 30.3391C251.989 31.7062 252.73 32.3897 254.213 32.3897H271.282V36H252.306C248.879 36 247.165 34.4789 247.165 31.4366V19.4506C247.165 16.4083 248.879 14.8872 252.306 14.8872H271.282V18.4975H254.213C252.73 18.4975 251.989 19.181 251.989 20.5481V30.3391Z" fill="#525E64"/>
<defs>
<linearGradient id="paint0_linear_207_307" x1="-4.5451e-09" y1="25.7889" x2="50.0228" y2="25.7889" gradientUnits="userSpaceOnUse">
<stop stop-color="#525E64" stop-opacity="0"/>
<stop offset="1" stop-color="#525E64"/>
</linearGradient>
<linearGradient id="paint1_linear_207_307" x1="51" y1="25.7889" x2="101.35" y2="25.7889" gradientUnits="userSpaceOnUse">
<stop stop-color="#525E64" stop-opacity="0"/>
<stop offset="1" stop-color="#525E64"/>
</linearGradient>
</defs>
</svg>
