<svg xmlns="http://www.w3.org/2000/svg" viewBox="0 0 1002.37 904.72">
  <defs>
    <style>
      .cls-1 {
        fill: #5b2d90;
      }
    </style>
  </defs>
  <g id="Layer_2" data-name="Layer 2">
    <g id="Layer_1-2" data-name="Layer 1">
      <path class="cls-1" d="M455.81,444.47c0-7-2-8.89-8.91-8.89q-32.75,0-65.48,0c-8.49,0-17.06-.53-25.47.33-53.21,5.4-89.52,53.31-80.75,106.14,7.5,45.22,48.16,77.55,94.7,75.29,45.56-2.21,83.19-39.35,85.48-84.92.7-14.12.11-28.31.11-42.46h.34C455.83,474.8,455.87,459.63,455.81,444.47Z"/>
      <path class="cls-1" d="M999.32,163.82c-4.93-55.55-19.05-108.41-45.59-157.71-1.62-3-3-6.18-7.07-6.11s-5.57,3.11-7.19,6.12c-43.43,86-113,159.2-206.53,188.47q-18.16,6.32-36.72,11.37c-5.79,2.38-9.88-3.2-5.74-7.76A331,331,0,0,0,740.27,53.62c.32-2.57.31-5.1-2.6-6.36s-5,.36-6.94,2.42c-55.76,60.24-133.89,99.16-216,105-58.88,3.76-117.95-1.52-176.83,2.75C104.06,174.66-56,426.8,18.4,647.61l.05,0C108.67,965.7,552.21,970.64,756.24,761.1c2.68-3.73,24.25-21.12,20.79-23.64C676.15,798.78,558.14,839.57,437.6,842,145.38,877.44-56.25,539.23,153.74,318,349.43,104.13,713.08,272.75,686.2,558.67c-12.93,116-136.34,150.8-208.35,67.92C400.61,722.79,235.72,676,216,555.92c-19.09-92.5,56.78-183.47,151.19-181.19,55.87.84,148.19-15.61,148.65,65.61,2.52,44.7-6.1,91.23,5.5,134.81,14,37.75,62.62,42.22,84,20.76C641.06,555,627.08,492,610.35,445.52,533,215.82,175,246.21,136.73,482.78,100,637.4,236,775.83,386.81,779.05,721.25,805.57,1036.89,502.3,999.32,163.82Z"/>
    </g>
  </g>
</svg>
