<?xml version="1.0" encoding="utf-8"?>
<!-- Generator: Adobe Illustrator 26.1.0, SVG Export Plug-In . SVG Version: 6.00 Build 0)  -->
<svg version="1.1" id="Layer_1" xmlns="http://www.w3.org/2000/svg" xmlns:xlink="http://www.w3.org/1999/xlink" x="0px" y="0px"
	 viewBox="0 0 422.6 422.6" style="enable-background:new 0 0 422.6 422.6;" xml:space="preserve">
<style type="text/css">
	.st0{stroke:#000000;stroke-width:38;}
	.st1{fill:#FFFFFF;}
	.st2{display:none;}
</style>
<path class="st0" d="M244.3,174.3h42 M194.3,174.3h42 M145.3,174.3h42 M96.3,174.3h41 M46.3,174.3h42 M96.3,128.3h41 M145.3,128.3
	h42 M194.3,128.3h42 M194.3,82.3h42"/>
<g>
	<path class="st1" d="M412.2,187.3c0,0-17.6-16.7-53.9-10.8c-3.9-28.4-34.3-45.1-34.3-45.1s-28.4,34.3-7.8,72.5
		c-5.9,2.9-15.7,6.9-30.4,6.9H16.3c-4.9,18.6-4.9,142.1,130.3,142.1c97,0,169.5-45.1,203.8-127.4
		C401.4,229.4,412.2,187.3,412.2,187.3"/>
	<path d="M416.6,182.6c-0.8-0.7-18.3-16.9-53.2-13.3c-7.3-27.3-35-42.8-36.3-43.5l-4.7-2.6l-3.4,4.1c-1.2,1.5-28,34.5-11.6,73.4
		c-6.6,2.4-13.8,3.6-21.6,3.6H11.3l-1.3,4.8c-3.5,13.3-4,64.5,25.8,103.2c24.1,31.2,61.4,47.1,110.8,47.1
		c98.4,0,172-45.1,208.1-127.2c26.1,0.7,41.9-10.3,50.6-20c10-11.1,13.1-22.8,13.2-23.3l0.9-3.7L416.6,182.6z M337.3,220
		c-31.9,76.8-99.9,119.1-191.3,119.1c-42.9,0-74.8-13.2-95-39.4c-19.5-25.3-23.7-57.6-23.3-75.7H285c13.4,0,25.3-2.7,36.4-8.2
		l12.5-6.2l-6.7-12.3c-10-18.5-5.2-36-0.2-46.7c7.2,6.3,15.4,15.8,17,27.6l1.9,13.7l13.7-2.3c4.5-0.8,9-1.1,13.2-1.1
		c9.6,0,16.7,1.9,21.5,3.9c-5.1,8.4-16.1,19.6-38.1,19.6c-1.8,0-3.6-0.1-5.4-0.2l-9.8-0.8L337.3,220z"/>
	<path class="st2" d="M145.9,359.1c-49.4,0-86.7-15.9-110.8-47.1C5.3,273.3,5.8,222.1,9.3,208.8l1.3-4.8h274.5
		c7.8,0,15-1.2,21.6-3.6c-16.4-38.9,10.4-71.9,11.6-73.4l3.4-4.1l4.7,2.6c1.3,0.7,29,16.2,36.3,43.5c34.9-3.6,52.4,12.6,53.2,13.3
		l2.8,2.6l-0.9,3.7c-0.1,0.5-3.2,12.2-13.2,23.3c-8.7,9.7-24.5,20.7-50.6,20C317.9,314,244.3,359.1,145.9,359.1z M21.1,217
		c-1.7,15.8,0.4,56,24.3,87c21.5,27.9,55.3,42.1,100.5,42.1c94.4,0,164.7-43.8,197.8-123.4l1.8-4.3l4.7,0.4
		c36.2,2.8,49.6-19.9,53.5-29.4c-6.1-3.9-20.9-10.7-45.2-6.7l-6.6,1.1l-0.9-6.6c-2.5-18.4-18.1-31.5-26.1-37.2
		c-6.3,9.9-18.1,34.2-3.8,60.6l3.2,5.9l-6,3c-10.2,5.1-21,7.5-33.3,7.5L21.1,217L21.1,217z"/>
</g>
</svg>
